HIERARCHY
ROOT Hips
{
	OFFSET 0.000000 83.214638 0.000000
	CHANNELS 6 Xposition Yposition Zposition Xrotation Yrotation Zrotation
	JOINT Pelvis
	{
		OFFSET 0.000000 0.000000 0.000000
		CHANNELS 3 Xrotation Yrotation Zrotation
		JOINT LeftUpLeg
		{
			OFFSET 8.479700 -4.795502 -0.379100
			CHANNELS 3 Xrotation Yrotation Zrotation
			JOINT LeftLeg
			{
				OFFSET 0.024144 -32.555107 0.112900
				CHANNELS 3 Xrotation Yrotation Zrotation
				JOINT LeftFoot
				{
					OFFSET -0.024144 -32.638630 -3.012600
					CHANNELS 3 Xrotation Yrotation Zrotation
					JOINT LeftToeBase
					{
						OFFSET 0.970200 -13.225400 11.864200
						CHANNELS 3 Xrotation Yrotation Zrotation
						End Site
						{
							OFFSET 0.000000 12.319262 0.000000
						}
					}
					JOINT LFootTongue
					{
						OFFSET 1.142400 -1.059800 6.665200
						CHANNELS 3 Xrotation Yrotation Zrotation
						End Site
						{
							OFFSET 0.000000 12.319262 0.000000
						}
					}
				}
				JOINT LeftPantLeg
				{
					OFFSET 0.918482 -16.533964 -2.284700
					CHANNELS 3 Xrotation Yrotation Zrotation
					End Site
					{
						OFFSET 0.350399 24.744368 0.000000
					}
				}
			}
		}
		JOINT RightUpLeg
		{
			OFFSET -8.479700 -4.795502 -0.379100
			CHANNELS 3 Xrotation Yrotation Zrotation
			JOINT RightLeg
			{
				OFFSET -0.023144 -32.555092 0.112900
				CHANNELS 3 Xrotation Yrotation Zrotation
				JOINT RightFoot
				{
					OFFSET 0.023144 -32.638641 -3.012700
					CHANNELS 3 Xrotation Yrotation Zrotation
					JOINT RightToeBase
					{
						OFFSET -0.970200 -13.225400 11.864200
						CHANNELS 3 Xrotation Yrotation Zrotation
						End Site
						{
							OFFSET 0.000000 12.319244 0.000000
						}
					}
					JOINT RFootTongue
					{
						OFFSET -1.142200 -1.059800 6.665200
						CHANNELS 3 Xrotation Yrotation Zrotation
						End Site
						{
							OFFSET 0.000000 12.319243 0.000000
						}
					}
				}
				JOINT RightPantLeg
				{
					OFFSET -0.919482 -16.533978 -2.284800
					CHANNELS 3 Xrotation Yrotation Zrotation
					End Site
					{
						OFFSET -0.350400 24.744419 0.000000
					}
				}
			}
		}
	}
	JOINT Spine
	{
		OFFSET 0.000000 7.722000 1.166200
		CHANNELS 3 Xrotation Yrotation Zrotation
		JOINT Spine1
		{
			OFFSET 0.000000 12.024101 0.248800
			CHANNELS 3 Xrotation Yrotation Zrotation
			JOINT Spine2
			{
				OFFSET 0.000000 11.502998 -0.491200
				CHANNELS 3 Xrotation Yrotation Zrotation
				JOINT Neck
				{
					OFFSET 0.000000 18.430702 -3.123100
					CHANNELS 3 Xrotation Yrotation Zrotation
					JOINT Head
					{
						OFFSET 0.000000 9.051102 1.034000
						CHANNELS 3 Xrotation Yrotation Zrotation
						JOINT HairB
						{
							OFFSET 0.208400 24.786102 24.822300
							CHANNELS 3 Xrotation Yrotation Zrotation
							End Site
							{
								OFFSET 0.000000 32.263779 0.000000
							}
						}
						JOINT HairA
						{
							OFFSET -7.081100 24.428299 23.196600
							CHANNELS 3 Xrotation Yrotation Zrotation
							End Site
							{
								OFFSET 0.000000 32.263779 0.000000
							}
						}
						JOINT Hat
						{
							OFFSET 16.728800 15.048294 -15.439601
							CHANNELS 3 Xrotation Yrotation Zrotation
							End Site
							{
								OFFSET 0.000000 32.263779 0.000000
							}
						}
					}
				}
				JOINT LeftShoulder
				{
					OFFSET 6.197800 13.665199 -4.064700
					CHANNELS 3 Xrotation Yrotation Zrotation
					JOINT LeftArm
					{
						OFFSET 7.778100 -0.187103 -1.709300
						CHANNELS 3 Xrotation Yrotation Zrotation
						JOINT LeftForeArm
						{
							OFFSET 22.049376 0.000000 0.000000
							CHANNELS 3 Xrotation Yrotation Zrotation
							JOINT LeftHand
							{
								OFFSET 23.009392 0.000000 0.000000
								CHANNELS 3 Xrotation Yrotation Zrotation
								JOINT LeftHandThumb1
								{
									OFFSET 3.507191 -2.063065 3.133727
									CHANNELS 3 Xrotation Yrotation Zrotation
									JOINT LeftHandThumb2
									{
										OFFSET 3.101337 -1.790558 1.790558
										CHANNELS 3 Xrotation Yrotation Zrotation
										JOINT LeftHandThumb3
										{
											OFFSET 3.058640 -1.765907 1.765906
											CHANNELS 3 Xrotation Yrotation Zrotation
											End Site
											{
												OFFSET -0.415260 3.926476 -0.049563
											}
										}
									}
								}
								JOINT LeftHandIndex1
								{
									OFFSET 11.334419 -0.901459 3.706815
									CHANNELS 3 Xrotation Yrotation Zrotation
									JOINT LeftHandIndex2
									{
										OFFSET 3.283112 0.000000 0.000000
										CHANNELS 3 Xrotation Yrotation Zrotation
										JOINT LeftHandIndex3
										{
											OFFSET 3.323853 0.000000 0.000000
											CHANNELS 3 Xrotation Yrotation Zrotation
											End Site
											{
												OFFSET -1.135597 3.097809 0.402452
											}
										}
									}
								}
								JOINT LeftHandMiddle1
								{
									OFFSET 11.335861 0.000000 0.000000
									CHANNELS 3 Xrotation Yrotation Zrotation
									JOINT LeftHandMiddle2
									{
										OFFSET 3.410492 0.000000 0.000000
										CHANNELS 3 Xrotation Yrotation Zrotation
										JOINT LeftHandMiddle3
										{
											OFFSET 3.312172 0.000000 0.000000
											CHANNELS 3 Xrotation Yrotation Zrotation
											End Site
											{
												OFFSET -1.150200 3.080154 0.400270
											}
										}
									}
								}
								JOINT LeftHandRing1
								{
									OFFSET 11.514786 -0.013176 -3.003090
									CHANNELS 3 Xrotation Yrotation Zrotation
									JOINT LeftHandRing2
									{
										OFFSET 3.053307 0.000000 0.000000
										CHANNELS 3 Xrotation Yrotation Zrotation
										JOINT LeftHandRing3
										{
											OFFSET 3.295807 0.000000 0.000000
											CHANNELS 3 Xrotation Yrotation Zrotation
											End Site
											{
												OFFSET -1.281006 3.013344 0.375733
											}
										}
									}
								}
								JOINT LeftHandPinky1
								{
									OFFSET 10.518692 -0.960396 -5.730441
									CHANNELS 3 Xrotation Yrotation Zrotation
									JOINT LeftHandPinky2
									{
										OFFSET 2.861649 0.000000 0.000000
										CHANNELS 3 Xrotation Yrotation Zrotation
										JOINT LeftHandPinky3
										{
											OFFSET 2.863380 0.000000 0.000000
											CHANNELS 3 Xrotation Yrotation Zrotation
											End Site
											{
												OFFSET -0.843597 2.711159 0.369971
											}
										}
									}
								}
							}
							JOINT LSleeve
							{
								OFFSET 6.676277 -0.344902 -1.011730
								CHANNELS 3 Xrotation Yrotation Zrotation
								End Site
								{
									OFFSET 0.000000 14.885353 0.000000
								}
							}
						}
					}
				}
				JOINT RightShoulder
				{
					OFFSET -6.197800 13.665199 -4.064700
					CHANNELS 3 Xrotation Yrotation Zrotation
					JOINT RightArm
					{
						OFFSET -7.778100 -0.187103 -1.709300
						CHANNELS 3 Xrotation Yrotation Zrotation
						JOINT RightForeArm
						{
							OFFSET -22.049376 0.000000 0.000000
							CHANNELS 3 Xrotation Yrotation Zrotation
							JOINT RightHand
							{
								OFFSET -23.009392 0.000000 0.000000
								CHANNELS 3 Xrotation Yrotation Zrotation
								JOINT RightHandThumb1
								{
									OFFSET -3.507191 -2.063065 3.133727
									CHANNELS 3 Xrotation Yrotation Zrotation
									JOINT RightHandThumb2
									{
										OFFSET -3.101337 -1.790558 1.790558
										CHANNELS 3 Xrotation Yrotation Zrotation
										JOINT RightHandThumb3
										{
											OFFSET -3.058640 -1.765907 1.765906
											CHANNELS 3 Xrotation Yrotation Zrotation
											End Site
											{
												OFFSET 0.415260 3.926476 -0.049563
											}
										}
									}
								}
								JOINT RightHandIndex1
								{
									OFFSET -11.334419 -0.901459 3.706815
									CHANNELS 3 Xrotation Yrotation Zrotation
									JOINT RightHandIndex2
									{
										OFFSET -3.283112 0.000000 0.000000
										CHANNELS 3 Xrotation Yrotation Zrotation
										JOINT RightHandIndex3
										{
											OFFSET -3.323853 0.000000 0.000000
											CHANNELS 3 Xrotation Yrotation Zrotation
											End Site
											{
												OFFSET 1.135597 3.097809 0.402452
											}
										}
									}
								}
								JOINT RightHandMiddle1
								{
									OFFSET -11.335861 0.000000 0.000000
									CHANNELS 3 Xrotation Yrotation Zrotation
									JOINT RightHandMiddle2
									{
										OFFSET -3.410492 0.000000 0.000000
										CHANNELS 3 Xrotation Yrotation Zrotation
										JOINT RightHandMiddle3
										{
											OFFSET -3.312172 0.000000 0.000000
											CHANNELS 3 Xrotation Yrotation Zrotation
											End Site
											{
												OFFSET 1.150200 3.080154 0.400270
											}
										}
									}
								}
								JOINT RightHandRing1
								{
									OFFSET -11.514786 -0.013176 -3.003090
									CHANNELS 3 Xrotation Yrotation Zrotation
									JOINT RightHandRing2
									{
										OFFSET -3.053307 0.000000 0.000000
										CHANNELS 3 Xrotation Yrotation Zrotation
										JOINT RightHandRing3
										{
											OFFSET -3.295807 0.000000 0.000000
											CHANNELS 3 Xrotation Yrotation Zrotation
											End Site
											{
												OFFSET 1.281006 3.013344 0.375733
											}
										}
									}
								}
								JOINT RightHandPinky1
								{
									OFFSET -10.518692 -0.960396 -5.730441
									CHANNELS 3 Xrotation Yrotation Zrotation
									JOINT RightHandPinky2
									{
										OFFSET -2.861649 0.000000 0.000000
										CHANNELS 3 Xrotation Yrotation Zrotation
										JOINT RightHandPinky3
										{
											OFFSET -2.863380 0.000000 0.000000
											CHANNELS 3 Xrotation Yrotation Zrotation
											End Site
											{
												OFFSET 0.843597 2.711159 0.369971
											}
										}
									}
								}
							}
							JOINT RSleeve
							{
								OFFSET -6.676277 -0.344902 -1.011730
								CHANNELS 3 Xrotation Yrotation Zrotation
								End Site
								{
									OFFSET 0.000000 14.885353 0.000000
								}
							}
						}
					}
				}
				JOINT Backpack
				{
					OFFSET 0.000000 -2.471497 36.677502
					CHANNELS 3 Xrotation Yrotation Zrotation
					End Site
					{
						OFFSET 0.000000 20.427315 0.000000
					}
				}
				JOINT Hood
				{
					OFFSET 0.000000 18.754097 -10.431000
					CHANNELS 3 Xrotation Yrotation Zrotation
					JOINT Hood1
					{
						OFFSET 0.000000 -5.011002 -7.685901
						CHANNELS 3 Xrotation Yrotation Zrotation
						End Site
						{
							OFFSET 0.000000 9.175140 0.000000
						}
					}
				}
				JOINT LHoodieString
				{
					OFFSET 5.250500 16.397697 3.089900
					CHANNELS 3 Xrotation Yrotation Zrotation
					JOINT LHoodieString1
					{
						OFFSET 0.257700 -6.364304 3.694600
						CHANNELS 3 Xrotation Yrotation Zrotation
						JOINT LHoodieString2
						{
							OFFSET 0.000000 -9.643799 2.679100
							CHANNELS 3 Xrotation Yrotation Zrotation
							End Site
							{
								OFFSET 0.000000 10.009018 0.000000
							}
						}
					}
				}
				JOINT RHoodieString
				{
					OFFSET -5.250500 16.397697 3.089900
					CHANNELS 3 Xrotation Yrotation Zrotation
					JOINT RHoodieString1
					{
						OFFSET -0.257700 -6.364304 3.694600
						CHANNELS 3 Xrotation Yrotation Zrotation
						JOINT RHoodieString2
						{
							OFFSET 0.000000 -9.643799 2.679100
							CHANNELS 3 Xrotation Yrotation Zrotation
							End Site
							{
								OFFSET 0.000000 10.009018 0.000000
							}
						}
					}
				}
			}
			JOINT LBackpack_Strap
			{
				OFFSET 15.223200 -7.719803 -6.610900
				CHANNELS 3 Xrotation Yrotation Zrotation
				End Site
				{
					OFFSET 0.000000 16.040596 0.000000
				}
			}
			JOINT RBackpack_Strap
			{
				OFFSET -15.223000 -7.719803 -6.610900
				CHANNELS 3 Xrotation Yrotation Zrotation
				End Site
				{
					OFFSET 0.000000 16.040596 0.000000
				}
			}
		}
	}
	JOINT BoyFacialAnim_Joint
	{
		OFFSET 1.000000 -82.208099 -1.550900
		CHANNELS 3 Xrotation Yrotation Zrotation
		End Site
		{
			OFFSET 0.000000 30.012791 0.000000
		}
	}
}
MOTION
Frames: 4
Frame Time: 0.033333
-0.298712 82.763359 0.719842 7.498586 -5.033306 1.041877 0.000000 -0.000000 -0.000000 -17.858877 14.940221 11.490717 26.463628 -0.012912 -0.980679 -13.489877 5.177241 -4.455502 -0.000000 -0.000000 -0.000000 -0.000000 -0.000000 -0.000000 -0.000003 -0.000001 -0.000001 -12.966332 10.141041 -0.290423 10.903550 -0.044491 0.404667 -5.321707 -11.967448 0.496784 -0.000000 -0.000000 0.000000 -0.000000 -0.000000 0.000000 0.000000 0.000000 -0.000000 0.258387 0.672467 1.123676 0.508441 1.346503 1.970898 0.508441 1.346504 1.970896 6.387640 0.480599 2.092422 26.827812 5.804047 -2.000699 -0.000000 0.000001 0.000001 -0.000000 0.000001 0.000001 -0.000000 0.000001 0.000001 -0.381171 5.730834 -0.851408 -41.149083 -24.841813 -84.526555 0.406050 -101.948005 0.452242 64.576891 17.424052 -1.972284 -6.823132 -6.841217 22.868494 -2.504466 -1.016869 10.590614 0.000003 -0.000000 -0.000002 0.756826 -0.955884 -7.925370 0.071411 0.848005 -22.069289 0.000000 0.000001 -0.000002 0.528298 1.892201 -18.487785 -0.268218 -0.973739 -18.347280 0.000001 -0.000001 0.000002 -1.794736 3.819662 -26.781959 -0.475646 -2.670994 -26.031389 -0.000000 -0.000001 -0.000002 -4.680771 0.408032 -19.860133 -1.431012 -7.021833 -38.230007 -0.000000 0.000002 -0.000002 0.000000 0.000001 -0.000002 -2.511226 6.016294 11.827174 23.162261 7.336455 48.346285 -2.114008 87.726847 2.186122 29.152576 42.912023 -31.523529 -7.151169 13.776630 5.257328 5.372669 0.092360 11.818194 0.000000 0.000001 -0.000001 0.238328 -1.901083 1.744579 1.094535 -2.084135 51.995980 -0.000002 0.000003 0.000004 0.242448 -5.581384 12.667271 -2.379313 3.159041 77.290837 0.000002 -0.000000 -0.000000 0.730487 -6.801707 22.788894 -3.799320 6.038478 64.517161 -0.000002 0.000002 0.000001 -2.261536 -2.766606 22.181630 -7.714964 11.418960 71.754935 -0.000003 0.000000 0.000000 0.000000 0.000001 -0.000001 0.000001 0.000000 -0.000000 0.000001 0.000000 -0.000000 0.000001 0.000000 -0.000000 0.000001 0.000000 -0.000000 0.000001 0.000000 -0.000000 -0.000000 0.000000 0.000000 0.000001 0.000000 -0.000000 0.000001 0.000000 -0.000000 -0.000000 0.000000 0.000000 0.000001 -0.000000 0.000000 0.000001 -0.000000 0.000000 0.000000 -0.000000 -0.000000 
-0.321603 82.784149 0.673717 7.499832 -4.969776 1.036857 0.000000 0.000000 -0.000000 -18.083957 15.002545 11.617193 26.604707 -0.012255 -0.985667 -13.127080 4.958235 -4.606232 -0.000000 0.000000 -0.000001 -0.000000 0.000000 -0.000001 0.000001 0.000000 -0.000001 -12.878647 10.534424 -0.224365 10.655896 -0.046095 0.394133 -5.169727 -12.473752 0.459673 -0.000000 -0.000000 0.000000 -0.000000 -0.000000 0.000000 0.000000 0.000000 -0.000000 0.289689 0.674105 1.140856 0.570950 1.349467 1.997525 0.570951 1.349467 1.997524 6.132896 0.457940 1.894058 26.936116 5.843444 -2.075674 -0.000000 0.000000 -0.000000 -0.000000 0.000000 -0.000000 -0.000000 0.000000 -0.000000 -0.366552 6.144684 -0.472809 -41.300040 -24.528370 -85.213454 0.401187 -102.012755 0.445816 65.069785 17.628302 -2.684420 -6.819812 -6.828051 22.865464 -2.500796 -1.015215 10.577397 -0.000003 -0.000000 -0.000001 0.756598 -0.944631 -7.940741 0.071198 0.847727 -22.072207 0.000000 0.000000 -0.000000 0.532081 1.904116 -18.503484 -0.268433 -0.973972 -18.346289 0.000002 -0.000002 -0.000000 -1.798083 3.813002 -26.784838 -0.475424 -2.670340 -26.018631 -0.000002 0.000001 -0.000002 -4.690151 0.382655 -19.843750 -1.430264 -7.021170 -38.218392 0.000000 0.000001 -0.000002 -0.000000 0.000002 0.000000 -2.362198 5.632662 11.409916 22.771680 8.047008 48.404089 -1.830138 87.408677 1.900591 31.325761 42.701076 -33.222365 -7.140420 13.756284 5.310431 5.363756 0.087151 11.828240 -0.000000 -0.000001 0.000004 0.232414 -1.894616 1.848043 1.105565 -2.089299 52.295029 -0.000002 0.000001 0.000005 0.259617 -5.633022 12.781197 -2.384365 3.160907 77.382772 0.000004 0.000000 0.000001 0.717127 -6.744096 22.895836 -3.804185 6.040477 64.563299 0.000000 -0.000001 0.000004 -2.306349 -2.655066 22.277142 -7.739246 11.420629 71.881047 -0.000004 0.000000 -0.000001 0.000001 -0.000001 -0.000001 0.000001 0.000000 -0.000000 0.000001 0.000000 -0.000000 0.000001 0.000000 -0.000000 0.000001 0.000000 -0.000000 0.000001 0.000000 -0.000000 0.000000 -0.000000 -0.000000 0.000001 0.000000 -0.000000 0.000001 0.000000 -0.000000 0.000000 -0.000000 -0.000000 0.000000 -0.000000 -0.000000 0.000000 -0.000000 -0.000000 0.000000 0.000000 -0.000000 
-0.346773 82.813278 0.634394 7.496438 -4.858347 1.064760 0.000001 0.000000 0.000000 -18.250469 15.003955 11.671275 26.671018 -0.011191 -0.987937 -12.709956 4.761740 -4.740703 -0.000000 -0.000001 -0.000000 -0.000000 -0.000001 -0.000000 -0.000002 -0.000001 -0.000000 -12.743847 10.879428 -0.207701 10.363083 -0.047757 0.382277 -5.008062 -12.974826 0.420504 -0.000000 -0.000000 0.000000 -0.000000 -0.000000 0.000000 0.000000 0.000000 -0.000000 0.320549 0.685921 1.158811 0.632405 1.372850 2.027873 0.632405 1.372851 2.027873 5.861140 0.431274 1.676730 27.010897 5.917481 -2.204551 -0.000001 0.000000 0.000000 -0.000001 0.000000 0.000000 -0.000001 0.000000 0.000000 -0.352501 6.729709 0.038890 -41.480545 -24.147271 -86.178498 0.397421 -102.026764 0.440485 65.537393 17.980895 -3.241593 -6.816360 -6.813634 22.861557 -2.497096 -1.013500 10.563874 -0.000002 -0.000001 -0.000000 0.756987 -0.928375 -7.947814 0.070513 0.846898 -22.069716 0.000000 -0.000002 -0.000000 0.536405 1.918281 -18.513730 -0.268867 -0.974153 -18.337876 0.000000 -0.000000 0.000002 -1.801331 3.807164 -26.778023 -0.475284 -2.669317 -25.996108 0.000000 -0.000002 -0.000006 -4.702745 0.348419 -19.809043 -1.429233 -7.019924 -38.196286 -0.000000 -0.000001 -0.000000 -0.000000 -0.000000 0.000003 -2.168904 5.127814 10.849549 22.419797 9.158709 48.454315 -1.513795 86.921602 1.582468 33.820310 42.233232 -34.989860 -7.129518 13.732424 5.312989 5.354622 0.082191 11.835844 0.000002 0.000001 -0.000004 0.228931 -1.888307 1.902791 1.110519 -2.091596 52.429287 0.000001 -0.000002 0.000002 0.269268 -5.649707 12.904162 -2.389490 3.162806 77.475123 0.000003 0.000000 -0.000002 0.706003 -6.686687 23.027421 -3.810762 6.043149 64.625720 -0.000002 0.000002 0.000003 -2.345475 -2.557964 22.399947 -7.758818 11.421917 71.982462 -0.000005 -0.000000 -0.000002 -0.000001 0.000000 -0.000000 -0.000000 -0.000000 -0.000000 -0.000000 -0.000000 -0.000000 -0.000000 -0.000000 -0.000000 -0.000000 -0.000000 -0.000000 -0.000000 -0.000000 -0.000000 -0.000001 0.000000 -0.000000 -0.000000 -0.000000 -0.000000 -0.000000 -0.000000 -0.000000 -0.000001 0.000000 -0.000000 0.000000 -0.000000 -0.000000 0.000000 -0.000000 -0.000000 0.000001 0.000000 0.000000 
-0.375648 82.842087 0.606907 7.477403 -4.665820 1.127727 -0.000000 0.000000 -0.000000 -18.358823 14.989885 11.663999 26.676682 -0.010178 -0.988012 -12.288237 4.520834 -4.864406 -0.000000 0.000002 -0.000000 -0.000000 0.000002 -0.000000 -0.000000 0.000001 0.000001 -12.604886 11.121502 -0.244529 10.154082 -0.049114 0.374356 -4.911463 -13.438230 0.375935 0.000000 -0.000000 -0.000000 0.000000 -0.000000 -0.000000 -0.000000 0.000000 -0.000000 0.349265 0.714494 1.175253 0.689319 1.429961 2.059292 0.689318 1.429961 2.059292 5.632685 0.390465 1.485857 26.967189 5.975265 -2.361988 -0.000002 0.000000 0.000000 -0.000002 0.000000 0.000000 -0.000002 0.000000 0.000000 -0.342219 7.379363 0.627283 -41.639412 -23.717192 -87.336563 0.396620 -101.963741 0.438159 65.854942 18.430057 -3.510444 -7.024922 -6.695433 23.276416 -2.493946 -1.012031 10.552397 0.000001 -0.000001 -0.000001 0.757574 -0.908680 -7.933919 0.068616 0.844730 -22.048225 -0.000001 -0.000002 -0.000000 0.539984 1.931906 -18.506049 -0.269806 -0.974012 -18.310352 0.000001 -0.000001 0.000004 -1.804288 3.803221 -26.751643 -0.475628 -2.667932 -25.955192 0.000001 0.000000 -0.000004 -4.717463 0.309625 -19.747325 -1.428047 -7.017664 -38.154229 -0.000000 0.000001 0.000002 -0.000002 0.000003 -0.000001 -1.978732 4.620128 10.278023 22.269582 10.382939 48.427711 -1.302172 86.487086 1.369035 36.581394 41.264984 -37.171720 -7.122902 13.717263 5.356648 5.347165 0.078495 11.838716 0.000001 0.000002 0.000002 0.222445 -1.876898 2.005560 1.117015 -2.094590 52.605014 -0.000002 0.000000 0.000004 0.288282 -5.700613 13.051337 -2.396206 3.165274 77.597274 -0.000003 -0.000001 0.000001 0.693587 -6.632740 23.133214 -3.816110 6.045320 64.676632 -0.000001 0.000001 -0.000001 -2.398251 -2.429355 22.503532 -7.787084 11.423742 72.129188 0.000003 -0.000000 0.000002 0.000001 -0.000002 -0.000000 0.000001 0.000000 0.000000 0.000001 0.000000 0.000000 0.000001 0.000000 0.000000 0.000001 0.000000 0.000000 0.000001 0.000000 0.000000 0.000001 0.000000 0.000000 0.000001 0.000000 0.000000 0.000001 0.000000 0.000000 0.000001 0.000000 0.000000 0.000001 -0.000000 0.000000 0.000001 -0.000000 0.000000 -0.000000 0.000000 -0.000000 
